<svg width="300" height="300" viewBox="0 0 300 300" fill="none" xmlns="http://www.w3.org/2000/svg">
<path d="M156.917 171.417V185.25H170.75V171.417H156.917ZM156.917 171.417H143.083V136.833M156.917 171.417V136.833M156.917 136.833H143.083M156.917 136.833V123M156.917 136.833H184.583V123M143.083 136.833H129.25V123H115.417M143.083 136.833V123H156.917M198.417 123H212.25V150.667H198.417M198.417 123V150.667M198.417 123H184.583M198.417 123V109.167H184.583V123M198.417 150.667V171.417H212.25V185.25H184.583V164.5H170.75V150.667H198.417ZM184.583 123H156.917M115.417 123H101.583M115.417 123V136.833H101.583V123M115.417 123V109.167H156.917V123M101.583 123H87.75V109.167H101.583V123ZM150 74.5833H163.833V60.75H150V74.5833ZM150 74.5833V88.4167H163.833V102.25H136.167V74.5833H150ZM98.125 71.125V91.875H118.875V71.125H98.125ZM129.25 102.25H87.75V60.75H129.25V102.25ZM98.125 154.125V174.875H118.875V154.125H98.125ZM129.25 185.25H87.75V143.75H129.25V185.25ZM181.125 71.125V91.875H201.875V71.125H181.125ZM212.25 102.25H170.75V60.75H212.25V102.25ZM113.687 76.3125H103.312V86.6875H113.687V76.3125ZM113.687 159.312H103.312V169.687H113.687V159.312ZM196.687 76.3125H186.312V86.6875H196.687V76.3125Z" stroke="#FE4D92" stroke-width="3"/>
<path d="M73.572 207.666C70.66 206.546 67.908 205.986 65.316 205.986C62.756 205.986 60.756 206.53 59.316 207.618C57.876 208.706 57.156 210.21 57.156 212.13C57.156 214.466 58.372 216.274 60.804 217.554C61.892 218.098 63.076 218.61 64.356 219.09C65.668 219.538 66.98 220.05 68.292 220.626C69.604 221.202 70.804 221.858 71.892 222.594C72.98 223.33 73.86 224.354 74.532 225.666C75.204 226.946 75.54 228.594 75.54 230.61C75.54 232.594 74.98 234.29 73.86 235.698C72.74 237.106 71.38 238.066 69.78 238.578C68.212 239.058 66.372 239.298 64.26 239.298C60.324 239.298 56.964 238.322 54.18 236.37L54.42 235.986C55.476 236.818 56.836 237.506 58.5 238.05C60.196 238.562 61.924 238.818 63.684 238.818C66.276 238.818 68.484 238.226 70.308 237.042C72.164 235.826 73.092 234.05 73.092 231.714C73.092 229.154 71.876 227.154 69.444 225.714C68.356 225.074 67.156 224.482 65.844 223.938C64.564 223.394 63.268 222.834 61.956 222.258C60.644 221.65 59.444 220.978 58.356 220.242C55.924 218.642 54.708 216.37 54.708 213.426C54.708 211.09 55.492 209.202 57.06 207.762C58.628 206.29 60.98 205.554 64.116 205.554C67.284 205.554 70.5 206.098 73.764 207.186L73.572 207.666ZM84.0191 239.25C82.7071 239.25 81.6991 238.962 80.9951 238.386C80.3231 237.81 79.9711 237.234 79.9391 236.658L79.8911 235.842V215.25H83.2511V235.842C83.2511 236.77 83.4271 237.49 83.7791 238.002C84.1631 238.482 84.5311 238.738 84.8831 238.77L85.4591 238.866H86.9471V239.25H84.0191ZM80.1791 209.874C79.7951 209.49 79.6031 209.01 79.6031 208.434C79.6031 207.858 79.7951 207.378 80.1791 206.994C80.5631 206.578 81.0431 206.37 81.6191 206.37C82.1951 206.37 82.6751 206.578 83.0591 206.994C83.4751 207.378 83.6831 207.858 83.6831 208.434C83.6831 209.01 83.4751 209.49 83.0591 209.874C82.6751 210.258 82.1951 210.45 81.6191 210.45C81.0431 210.45 80.5631 210.258 80.1791 209.874ZM89.6175 228.114C89.6175 223.954 90.6255 220.738 92.6415 218.466C94.6575 216.194 97.6815 215.058 101.714 215.058C104.69 215.058 107.714 215.586 110.786 216.642V239.826C110.754 247.442 107.426 251.25 100.802 251.25C97.1535 251.25 94.0335 250.066 91.4415 247.698L91.7775 247.41C94.5295 249.714 97.5375 250.866 100.802 250.866C105.218 250.866 107.426 247.186 107.426 239.826V235.074C106.818 236.194 105.81 237.186 104.402 238.05C102.994 238.914 101.33 239.346 99.4095 239.346C92.8815 239.186 89.6175 235.442 89.6175 228.114ZM99.4575 238.962C101.602 238.962 103.442 238.386 104.978 237.234C106.514 236.082 107.33 234.946 107.426 233.826V216.882C105.122 215.922 103.17 215.442 101.57 215.442C98.7215 215.442 96.5775 216.562 95.1375 218.802C93.6975 221.01 92.9775 224.114 92.9775 228.114C92.9775 235.346 95.1375 238.962 99.4575 238.962ZM136.684 239.25C135.372 239.25 134.364 238.962 133.66 238.386C132.988 237.81 132.636 237.234 132.604 236.658L132.556 235.842V220.77C132.556 218.242 131.9 216.626 130.588 215.922C129.916 215.602 129.084 215.442 128.092 215.442C126.044 215.442 124.204 216.258 122.572 217.89C120.94 219.49 120.124 220.93 120.124 222.21V239.25H116.764V215.25H120.124V220.722C120.668 219.346 121.676 218.066 123.148 216.882C124.62 215.666 126.236 215.058 127.996 215.058C129.756 215.058 131.18 215.234 132.268 215.586C133.388 215.906 134.204 216.37 134.716 216.978C135.516 217.97 135.916 219.25 135.916 220.818V235.842C135.916 236.77 136.092 237.49 136.444 238.002C136.828 238.482 137.212 238.738 137.596 238.77L138.124 238.866H139.612V239.25H136.684ZM161.853 239.25C159.677 239.25 158.189 238.834 157.389 238.002C156.653 237.298 156.285 236.69 156.285 236.178V235.17C154.717 238.018 152.205 239.442 148.749 239.442C144.717 239.442 142.429 237.618 141.885 233.97C141.821 233.586 141.789 233.202 141.789 232.818C141.789 232.402 141.853 231.954 141.981 231.474C142.109 230.994 142.477 230.466 143.085 229.89C144.301 228.738 146.973 228.034 151.101 227.778C152.125 227.682 153.069 227.634 153.933 227.634C154.797 227.634 155.581 227.666 156.285 227.73V219.762C156.221 219.73 156.221 219.586 156.285 219.33C156.349 219.042 156.285 218.69 156.093 218.274C155.933 217.826 155.709 217.394 155.421 216.978C155.133 216.562 154.621 216.21 153.885 215.922C153.149 215.602 152.189 215.442 151.005 215.442C149.821 215.442 148.429 215.666 146.829 216.114C145.261 216.53 144.109 216.946 143.373 217.362L143.181 217.026C146.029 215.714 148.925 215.058 151.869 215.058C155.165 215.058 157.341 215.65 158.397 216.834C159.229 217.762 159.645 218.738 159.645 219.762V235.842C159.645 236.77 159.821 237.49 160.173 238.002C160.557 238.482 160.941 238.738 161.325 238.77L161.853 238.866H163.341V239.25H161.853ZM149.517 239.058C151.213 239.058 152.733 238.482 154.077 237.33C155.453 236.146 156.189 235.01 156.285 233.922V228.114C155.421 228.05 154.541 228.018 153.645 228.018C152.781 228.018 151.917 228.066 151.053 228.162C148.621 228.45 147.037 228.994 146.301 229.794C145.565 230.594 145.197 231.698 145.197 233.106C145.197 233.362 145.213 233.65 145.245 233.97C145.533 237.362 146.957 239.058 149.517 239.058ZM166.68 215.634V215.25H167.688V210.45H171.048V215.25H178.392V215.634H171.048V233.106C171.048 235.186 171.272 236.69 171.72 237.618C172.2 238.546 173.176 239.01 174.648 239.01C176.152 239.01 177.672 238.706 179.208 238.098L179.352 238.482C177.752 239.09 175.912 239.394 173.832 239.394C171.784 239.394 170.248 238.978 169.224 238.146C168.2 237.282 167.688 235.586 167.688 233.058V215.634H166.68ZM186.311 233.73C186.311 236.258 186.983 237.874 188.327 238.578C188.967 238.898 189.783 239.058 190.775 239.058C192.791 239.058 194.583 238.29 196.151 236.754C197.751 235.218 198.615 233.794 198.743 232.482V215.25H202.103V235.842C202.103 236.77 202.279 237.49 202.631 238.002C203.015 238.482 203.399 238.738 203.783 238.77L204.311 238.866H205.799V239.25H202.871C201.559 239.25 200.551 238.962 199.847 238.386C199.175 237.81 198.823 237.234 198.791 236.658L198.743 235.842V233.778C198.167 235.154 197.143 236.45 195.671 237.666C194.199 238.85 192.583 239.442 190.823 239.442C189.095 239.442 187.671 239.282 186.551 238.962C185.463 238.61 184.679 238.13 184.199 237.522C183.367 236.53 182.951 235.25 182.951 233.682V215.25H186.311V233.73ZM217.385 217.314V216.306C215.945 216.882 214.633 218.05 213.449 219.81C212.265 221.538 211.641 223.17 211.577 224.706V239.25H208.217V215.25H211.577V222.882C212.089 221.026 213.065 219.282 214.505 217.65C215.945 215.986 217.577 215.122 219.401 215.058H219.593C220.233 215.058 220.761 215.282 221.177 215.73C221.625 216.146 221.849 216.674 221.849 217.314C221.849 217.954 221.625 218.482 221.177 218.898C220.761 219.314 220.233 219.522 219.593 219.522C218.953 219.522 218.425 219.314 218.009 218.898C217.593 218.482 217.385 217.954 217.385 217.314ZM243.838 239.25C241.662 239.25 240.174 238.834 239.374 238.002C238.638 237.298 238.27 236.69 238.27 236.178V235.17C236.702 238.018 234.19 239.442 230.734 239.442C226.702 239.442 224.414 237.618 223.87 233.97C223.806 233.586 223.774 233.202 223.774 232.818C223.774 232.402 223.838 231.954 223.966 231.474C224.094 230.994 224.462 230.466 225.07 229.89C226.286 228.738 228.958 228.034 233.086 227.778C234.11 227.682 235.054 227.634 235.918 227.634C236.782 227.634 237.566 227.666 238.27 227.73V219.762C238.206 219.73 238.206 219.586 238.27 219.33C238.334 219.042 238.27 218.69 238.078 218.274C237.918 217.826 237.694 217.394 237.406 216.978C237.118 216.562 236.606 216.21 235.87 215.922C235.134 215.602 234.174 215.442 232.99 215.442C231.806 215.442 230.414 215.666 228.814 216.114C227.246 216.53 226.094 216.946 225.358 217.362L225.166 217.026C228.014 215.714 230.91 215.058 233.854 215.058C237.15 215.058 239.326 215.65 240.382 216.834C241.214 217.762 241.63 218.738 241.63 219.762V235.842C241.63 236.77 241.806 237.49 242.158 238.002C242.542 238.482 242.926 238.738 243.31 238.77L243.838 238.866H245.326V239.25H243.838ZM231.502 239.058C233.198 239.058 234.718 238.482 236.062 237.33C237.438 236.146 238.174 235.01 238.27 233.922V228.114C237.406 228.05 236.526 228.018 235.63 228.018C234.766 228.018 233.902 228.066 233.038 228.162C230.606 228.45 229.022 228.994 228.286 229.794C227.55 230.594 227.182 231.698 227.182 233.106C227.182 233.362 227.198 233.65 227.23 233.97C227.518 237.362 228.942 239.058 231.502 239.058Z" fill="black"/>
</svg>
